<?xml version="1.0" encoding="UTF-8" standalone="no"?>
<svg
   xmlns:dc="http://purl.org/dc/elements/1.1/"
   xmlns:cc="http://creativecommons.org/ns#"
   xmlns:rdf="http://www.w3.org/1999/02/22-rdf-syntax-ns#"
   xmlns:svg="http://www.w3.org/2000/svg"
   xmlns="http://www.w3.org/2000/svg"
   xmlns:xlink="http://www.w3.org/1999/xlink"
   xmlns:sodipodi="http://sodipodi.sourceforge.net/DTD/sodipodi-0.dtd"
   xmlns:inkscape="http://www.inkscape.org/namespaces/inkscape"
   width="800.00262"
   height="400.00308"
   viewBox="0 0 211.66737 105.83415"
   version="1.1"
   id="svg8"
   inkscape:version="1.0.2-2 (e86c870879, 2021-01-15)"
   sodipodi:docname="lembas-thumbnail.svg">
  <defs
     id="defs2">
    <linearGradient
       inkscape:collect="always"
       id="linearGradient3452">
      <stop
         style="stop-color:#028174;stop-opacity:1"
         offset="0"
         id="stop3448" />
      <stop
         style="stop-color:#92de8b;stop-opacity:1"
         offset="1"
         id="stop3450" />
    </linearGradient>
    <rect
       x="28.488683"
       y="-71.139611"
       width="27.583042"
       height="23.671565"
       id="rect3386" />
    <marker
       style="overflow:visible;"
       id="marker3334"
       refX="0.0"
       refY="0.0"
       orient="auto"
       inkscape:stockid="Arrow1Lend"
       inkscape:isstock="true">
      <path
         transform="scale(0.8) rotate(180) translate(12.5,0)"
         style="fill-rule:evenodd;stroke:#f2ecd9;stroke-width:1pt;stroke-opacity:1;fill:#f7f4e9;fill-opacity:1"
         d="M 0.0,0.0 L 5.0,-5.0 L -12.5,0.0 L 5.0,5.0 L 0.0,0.0 z "
         id="path3332" />
    </marker>
    <marker
       style="overflow:visible;"
       id="marker3324"
       refX="0.0"
       refY="0.0"
       orient="auto"
       inkscape:stockid="Arrow1Lend"
       inkscape:isstock="true">
      <path
         transform="scale(0.8) rotate(180) translate(12.5,0)"
         style="fill-rule:evenodd;stroke:#f2ecd9;stroke-width:1pt;stroke-opacity:1;fill:#0a8270;fill-opacity:1"
         d="M 0.0,0.0 L 5.0,-5.0 L -12.5,0.0 L 5.0,5.0 L 0.0,0.0 z "
         id="path3322" />
    </marker>
    <rect
       x="-4.1615189"
       y="-135.84516"
       width="62.785897"
       height="45.662471"
       id="rect3028" />
    <rect
       x="10.213703"
       y="-119.99013"
       width="160.03005"
       height="52.427281"
       id="rect3022" />
    <rect
       x="27.54853"
       y="-116.60773"
       width="38.89766"
       height="28.116244"
       id="rect3016" />
    <rect
       x="26.914329"
       y="-103.71231"
       width="111.83077"
       height="17.334827"
       id="rect3010" />
    <rect
       x="62.548119"
       y="-25.682009"
       width="2.0711298"
       height="17.39749"
       id="rect903" />
    <rect
       x="-22.3682"
       y="-51.778244"
       width="193.44353"
       height="119.29707"
       id="rect897" />
    <filter
       inkscape:collect="always"
       style="color-interpolation-filters:sRGB"
       id="filter926"
       x="-1.4167179e-05"
       width="1.0000283"
       y="-8.7260414e-06"
       height="1.0000175">
      <feGaussianBlur
         inkscape:collect="always"
         stdDeviation="6.9587998e-05"
         id="feGaussianBlur928" />
    </filter>
    <linearGradient
       inkscape:collect="always"
       xlink:href="#linearGradient3452"
       id="linearGradient2988"
       x1="21.178534"
       y1="64.87925"
       x2="58.250008"
       y2="64.87925"
       gradientUnits="userSpaceOnUse" />
    <rect
       x="28.488683"
       y="-71.139611"
       width="27.583042"
       height="23.671565"
       id="rect3394" />
    <rect
       x="28.488683"
       y="-71.139611"
       width="27.583042"
       height="23.671565"
       id="rect3400" />
    <rect
       x="28.488683"
       y="-71.139611"
       width="27.583042"
       height="23.671565"
       id="rect3406" />
    <rect
       x="28.488683"
       y="-71.139611"
       width="27.583042"
       height="23.671565"
       id="rect3422" />
    <linearGradient
       inkscape:collect="always"
       xlink:href="#linearGradient3452"
       id="linearGradient3438"
       gradientUnits="userSpaceOnUse"
       gradientTransform="matrix(1.325959,0,0,1.2997024,-326.47135,-626.4489)"
       x1="268.35938"
       y1="500.51953"
       x2="285.10526"
       y2="499.24338" />
    <linearGradient
       inkscape:collect="always"
       xlink:href="#linearGradient3452"
       id="linearGradient3454"
       gradientUnits="userSpaceOnUse"
       x1="2.3925879"
       y1="12.213897"
       x2="28.736525"
       y2="12.213897" />
    <rect
       x="28.488683"
       y="-71.139611"
       width="27.583042"
       height="23.671565"
       id="rect968" />
    <rect
       x="28.488683"
       y="-71.139611"
       width="27.583042"
       height="23.671565"
       id="rect976" />
    <rect
       x="28.488683"
       y="-71.139611"
       width="27.583042"
       height="23.671565"
       id="rect986" />
    <rect
       x="28.488683"
       y="-71.139611"
       width="65.917583"
       height="40.15281"
       id="rect996" />
    <rect
       x="28.488683"
       y="-71.139611"
       width="27.583042"
       height="23.671565"
       id="rect1012" />
    <rect
       x="28.488683"
       y="-71.139611"
       width="27.583042"
       height="23.671565"
       id="rect1032" />
    <rect
       x="28.488683"
       y="-71.139611"
       width="27.583042"
       height="23.671565"
       id="rect1042" />
  </defs>
  <sodipodi:namedview
     id="base"
     pagecolor="#ffffff"
     bordercolor="#666666"
     borderopacity="1.0"
     inkscape:pageopacity="0.0"
     inkscape:pageshadow="2"
     inkscape:zoom="1.2674791"
     inkscape:cx="105.55865"
     inkscape:cy="200.00155"
     inkscape:document-units="px"
     inkscape:current-layer="layer1"
     inkscape:document-rotation="0"
     showgrid="false"
     showborder="false"
     inkscape:object-paths="true"
     inkscape:snap-intersection-paths="true"
     inkscape:snap-smooth-nodes="true"
     inkscape:snap-midpoints="true"
     inkscape:window-width="1920"
     inkscape:window-height="1001"
     inkscape:window-x="-9"
     inkscape:window-y="-9"
     inkscape:window-maximized="1"
     inkscape:object-nodes="true"
     units="px"
     fit-margin-top="0"
     fit-margin-left="0"
     fit-margin-right="0"
     fit-margin-bottom="0"
     showguides="false" />
  <metadata
     id="metadata5">
    <rdf:RDF>
      <cc:Work
         rdf:about="">
        <dc:format>image/svg+xml</dc:format>
        <dc:type
           rdf:resource="http://purl.org/dc/dcmitype/StillImage" />
        <dc:title></dc:title>
      </cc:Work>
    </rdf:RDF>
  </metadata>
  <g
     inkscape:label="Layer 1"
     inkscape:groupmode="layer"
     id="layer1"
     transform="translate(-2.3918912,34.795799)">
    <rect
       style="fill:#e9e9e7;fill-opacity:1;stroke-width:0.112758"
       id="rect1085"
       width="112.44792"
       height="112.97814"
       x="-29.546509"
       y="-38.762009"
       ry="13.370957" />
    <path
       id="path839"
       style="font-size:10.5833px;line-height:1.25;font-family:'Hunting Star';-inkscape-font-specification:'Hunting Star, Normal';fill:#e9e9e7;fill-opacity:1;stroke-width:0.13229167;stroke:#0a8270;stroke-opacity:1;stroke-miterlimit:4;stroke-dasharray:none;opacity:1"
       d="m 28.541223,-8.9456017 c -0.1768,-0.024569 -0.362334,0.014617 -0.556796,0.1169224 -0.388944,0.1734064 -0.601498,0.4671555 -0.63709,0.8833705 -0.03557,0.5891772 -0.0166,1.2123462 0.05439,1.8708842 0.07065,0.6584892 0.193544,1.4554544 0.370349,2.3912404 0.212133,0.9011028 0.354012,1.5240281 0.424722,1.8708335 0.282851,1.83693944 0.460209,3.7436837 0.530904,5.7191984 0.07065,3.8471353 -0.283903,7.8853073 -1.061802,12.1136333 -0.707176,3.673831 -1.749441,7.658559 -3.128437,11.956247 -0.212137,0.658488 -0.618676,1.888715 -1.219772,3.690974 -0.601113,1.767568 -1.097595,3.294495 -1.486537,4.57689 -0.388944,1.247714 -0.740987,2.477842 -1.059218,3.690925 -1.777556,7.458531 -1.638942,13.874337 0.40658,19.256897 l 2.1521,-0.47207 c -0.565151,-1.685937 -0.912313,-3.47336 -1.022965,-5.371456 -0.106072,-2.460798 0.01952,-4.715133 0.372903,-6.75996 0.388944,-2.079507 0.972792,-4.366066 1.750674,-6.861495 0.388942,-1.282345 1.131083,-3.603733 2.227194,-6.965635 1.131483,-3.361902 2.031902,-6.258023 2.703724,-8.684139 0.707173,-2.426117 1.274554,-4.798297 1.698875,-7.12042 0.883986,-4.71356 1.255033,-9.0645965 1.113605,-13.0503539 C 32.103976,1.5847618 31.874689,-0.61617757 31.485749,-2.6956855 31.27361,-3.8047261 30.989863,-4.8797733 30.6363,-5.9195507 30.424161,-6.57804 30.246807,-7.0273657 30.105402,-7.2700299 29.963947,-7.6163443 29.609363,-8.0845813 29.043597,-8.6738072 28.88447,-8.8300286 28.718004,-8.9194193 28.54118,-8.9454555 Z"
       inkscape:export-xdpi="96"
       inkscape:export-ydpi="96" />
    <path
       id="path879"
       style="font-size:10.5833px;line-height:1.25;font-family:'Hunting Star';-inkscape-font-specification:'Hunting Star, Normal';fill:url(#linearGradient2988);fill-opacity:1.0;stroke-width:0;stroke:#f2ecd9;stroke-opacity:1;stroke-miterlimit:4;stroke-dasharray:none"
       d="m 23.330638,58.72015 -2.152104,0.472067 c 0.273779,0.720334 0.577128,1.426276 0.919369,2.109471 1.201666,2.384462 2.755376,4.376974 4.661564,5.975571 0.3935,0.330102 0.801486,0.642522 1.22496,0.939223 2.475114,1.767775 5.498113,2.703904 9.069366,2.807553 4.207684,0.138512 8.185586,-0.727799 11.933634,-2.599371 3.783386,-1.836891 6.858286,-4.436313 9.227324,-7.798214 0.07065,-0.139017 0.03506,-0.277542 -0.106204,-0.416067 -0.141455,-0.103653 -0.264258,-0.08793 -0.370351,0.05059 -2.864072,3.292542 -5.799708,5.685941 -8.8052,7.176274 -3.182308,1.594273 -6.647302,2.407646 -10.395314,2.442031 -3.748045,0 -6.858416,-0.882586 -9.333529,-2.650164 -2.298311,-1.62896 -4.085301,-4.003744 -5.358203,-7.122981 -0.192393,-0.452419 -0.358126,-0.91697 -0.515359,-1.385992 z"
       inkscape:export-xdpi="96"
       inkscape:export-ydpi="96" />
    <text
       xml:space="preserve"
       id="text895"
       style="font-size:10.5833px;line-height:1.25;font-family:'Hunting Star';-inkscape-font-specification:'Hunting Star, Normal';white-space:pre;shape-inside:url(#rect897);" />
    <text
       xml:space="preserve"
       id="text901"
       style="font-size:10.5833px;line-height:1.25;font-family:'Hunting Star';-inkscape-font-specification:'Hunting Star, Normal';white-space:pre;shape-inside:url(#rect903);" />
    <text
       xml:space="preserve"
       id="text3014"
       style="line-height:1.25;font-family:'Hunting Star';font-size:10.58333361px;-inkscape-font-specification:'Hunting Star, Normal';white-space:pre;shape-inside:url(#rect3016);" />
    <text
       xml:space="preserve"
       id="text3026"
       style="line-height:1.25;font-family:'Hunting Star';font-size:10.58333361px;-inkscape-font-specification:'Hunting Star, Normal';white-space:pre;shape-inside:url(#rect3028);" />
  </g>
  <g
     inkscape:groupmode="layer"
     id="layer2"
     inkscape:label="Layer 2"
     style="opacity:1;filter:url(#filter926)"
     transform="translate(-2.3918912,34.795799)">
    <path
       id="path855"
       style="mix-blend-mode:normal;fill:url(#linearGradient3454);fill-opacity:1;stroke:none;stroke-width:1.31483;stroke-miterlimit:4;stroke-dasharray:none"
       d="m 24.040224,-34.794964 c 0,0 -19.6841423,33.2168817 -21.5575369,63.383513 -1.59674566,25.711947 18.5585849,30.634208 18.5585849,30.634208 0,0 0.128102,-0.02603 0.137268,-0.02802 -2.046327,-5.383052 -2.184383,-11.799943 -0.40658,-19.259456 0.318227,-1.213064 0.670274,-2.443231 1.059214,-3.690945 0.388943,-1.282365 0.885432,-2.809308 1.486522,-4.576876 0.601096,-1.802191 1.007621,-3.032398 1.219773,-3.690906 1.378995,-4.297673 2.421266,-8.28243 3.128438,-11.956245 0.328965,-1.788157 0.582235,-3.542304 0.75965,-5.262375 0.242108,-2.3472672 0.342959,-4.6310759 0.30215,-6.8512561 -0.02941,-0.8222896 -0.07731,-1.6326625 -0.143617,-2.4310402 -0.09299,-1.11971686 -0.222176,-2.21583967 -0.387281,-3.2881525 -0.07065,-0.3466086 -0.21259,-0.9697645 -0.424724,-1.8708579 -0.1768,-0.9357879 -0.299636,-1.7327512 -0.37035,-2.3912611 -0.07065,-0.6585305 -0.08976,-1.2816713 -0.05438,-1.8708523 0.03557,-0.4159207 0.248123,-0.7100914 0.637086,-0.8833967 0.217748,-0.1164726 0.39791,0.040274 0.593059,0.086319 l -0.03661,-0.203071 z"
       sodipodi:nodetypes="cccccccccscscccccccc"
       inkscape:export-xdpi="96"
       inkscape:export-ydpi="96" />
    <path
       id="path894"
       style="fill:url(#linearGradient3438);fill-opacity:1;stroke:none;stroke-width:1.31276"
       d="m 24.040224,-34.794964 4.500999,25.849351 0.0361,0.2030728 c 0.153431,0.036357 0.326099,-0.068834 0.466171,0.068534 0.565741,0.589209 0.920368,1.0572023 1.061801,1.4037828 0.141454,0.2426661 0.318727,0.6920012 0.530896,1.350468 0.353612,1.0397642 0.637299,2.1148227 0.849447,3.2238746 0.322188,1.72260232 0.534765,3.52852302 0.638448,5.4176247 0.02148,0.391417 0.03829,0.786405 0.05043,1.1849628 0.04266,1.2020017 0.03871,2.4372229 -0.01187,3.7055895 -0.117135,2.9374448 -0.484338,6.0526658 -1.101733,9.3447448 -0.113771,0.62269 -0.237837,1.248983 -0.372132,1.878952 -0.366511,1.719289 -0.809207,3.465957 -1.326739,5.241483 -0.671822,2.426103 -1.572245,5.322253 -2.703723,8.684141 -1.096114,3.361887 -1.83824,5.683235 -2.227197,6.9656 -0.777871,2.495429 -1.36173,4.781983 -1.750672,6.861504 -0.353559,2.044847 -0.479,4.299196 -0.372905,6.759983 0.110656,1.898063 0.457802,3.685494 1.022971,5.371426 C 30.927543,56.887905 49.609103,48.854543 51.35943,27.164172 54.356852,-9.9803777 24.040069,-34.794979 24.040069,-34.794979 Z"
       sodipodi:nodetypes="cccccccscscsccccccscc"
       inkscape:export-xdpi="96"
       inkscape:export-ydpi="96" />
  </g>
</svg>
