<?xml version="1.0" encoding="UTF-8" standalone="no"?>
<svg
   xmlns:dc="http://purl.org/dc/elements/1.1/"
   xmlns:cc="http://creativecommons.org/ns#"
   xmlns:rdf="http://www.w3.org/1999/02/22-rdf-syntax-ns#"
   xmlns:svg="http://www.w3.org/2000/svg"
   xmlns="http://www.w3.org/2000/svg"
   xmlns:xlink="http://www.w3.org/1999/xlink"
   xmlns:sodipodi="http://sodipodi.sourceforge.net/DTD/sodipodi-0.dtd"
   xmlns:inkscape="http://www.inkscape.org/namespaces/inkscape"
   width="800.00262"
   height="400.00308"
   viewBox="0 0 211.66737 105.83415"
   version="1.1"
   id="svg8"
   inkscape:version="1.0.2-2 (e86c870879, 2021-01-15)"
   sodipodi:docname="lembas-logo.svg">
  <defs
     id="defs2">
    <linearGradient
       inkscape:collect="always"
       id="linearGradient940">
      <stop
         style="stop-color:#028174;stop-opacity:1"
         offset="0"
         id="stop936" />
      <stop
         style="stop-color:#92de8b;stop-opacity:1"
         offset="1"
         id="stop938" />
    </linearGradient>
    <linearGradient
       inkscape:collect="always"
       id="linearGradient934">
      <stop
         style="stop-color:#028174;stop-opacity:1"
         offset="0"
         id="stop930" />
      <stop
         style="stop-color:#92de8b;stop-opacity:1"
         offset="1"
         id="stop932" />
    </linearGradient>
    <linearGradient
       inkscape:collect="always"
       id="linearGradient3452">
      <stop
         style="stop-color:#028174;stop-opacity:1"
         offset="0"
         id="stop3448" />
      <stop
         style="stop-color:#92de8b;stop-opacity:1"
         offset="1"
         id="stop3450" />
    </linearGradient>
    <rect
       x="28.488683"
       y="-71.139611"
       width="27.583042"
       height="23.671565"
       id="rect3386" />
    <marker
       style="overflow:visible;"
       id="marker3334"
       refX="0.0"
       refY="0.0"
       orient="auto"
       inkscape:stockid="Arrow1Lend"
       inkscape:isstock="true">
      <path
         transform="scale(0.8) rotate(180) translate(12.5,0)"
         style="fill-rule:evenodd;stroke:#f2ecd9;stroke-width:1pt;stroke-opacity:1;fill:#f7f4e9;fill-opacity:1"
         d="M 0.0,0.0 L 5.0,-5.0 L -12.5,0.0 L 5.0,5.0 L 0.0,0.0 z "
         id="path3332" />
    </marker>
    <marker
       style="overflow:visible;"
       id="marker3324"
       refX="0.0"
       refY="0.0"
       orient="auto"
       inkscape:stockid="Arrow1Lend"
       inkscape:isstock="true">
      <path
         transform="scale(0.8) rotate(180) translate(12.5,0)"
         style="fill-rule:evenodd;stroke:#f2ecd9;stroke-width:1pt;stroke-opacity:1;fill:#0a8270;fill-opacity:1"
         d="M 0.0,0.0 L 5.0,-5.0 L -12.5,0.0 L 5.0,5.0 L 0.0,0.0 z "
         id="path3322" />
    </marker>
    <rect
       x="-4.1615189"
       y="-135.84516"
       width="62.785897"
       height="45.662471"
       id="rect3028" />
    <rect
       x="10.213703"
       y="-119.99013"
       width="160.03005"
       height="52.427281"
       id="rect3022" />
    <rect
       x="27.54853"
       y="-116.60773"
       width="38.89766"
       height="28.116244"
       id="rect3016" />
    <rect
       x="26.914329"
       y="-103.71231"
       width="111.83077"
       height="17.334827"
       id="rect3010" />
    <rect
       x="62.548119"
       y="-25.682009"
       width="2.0711298"
       height="17.39749"
       id="rect903" />
    <rect
       x="-22.3682"
       y="-51.778244"
       width="193.44353"
       height="119.29707"
       id="rect897" />
    <filter
       inkscape:collect="always"
       style="color-interpolation-filters:sRGB"
       id="filter926"
       x="-1.4167179e-05"
       width="1.0000283"
       y="-8.7260414e-06"
       height="1.0000175">
      <feGaussianBlur
         inkscape:collect="always"
         stdDeviation="6.9587998e-05"
         id="feGaussianBlur928" />
    </filter>
    <linearGradient
       inkscape:collect="always"
       xlink:href="#linearGradient3452"
       id="linearGradient2966"
       x1="58.049744"
       y1="50.658936"
       x2="84.087799"
       y2="50.658936"
       gradientUnits="userSpaceOnUse" />
    <linearGradient
       inkscape:collect="always"
       xlink:href="#linearGradient934"
       id="linearGradient2970"
       x1="128.96873"
       y1="21.084776"
       x2="161.07445"
       y2="21.084776"
       gradientUnits="userSpaceOnUse" />
    <linearGradient
       inkscape:collect="always"
       xlink:href="#linearGradient940"
       id="linearGradient2972"
       x1="160.63019"
       y1="50.049171"
       x2="198.28987"
       y2="50.049171"
       gradientUnits="userSpaceOnUse" />
    <linearGradient
       inkscape:collect="always"
       xlink:href="#linearGradient940"
       id="linearGradient2974"
       x1="192.2988"
       y1="51.500813"
       x2="214.05927"
       y2="51.500813"
       gradientUnits="userSpaceOnUse" />
    <linearGradient
       inkscape:collect="always"
       xlink:href="#linearGradient3452"
       id="linearGradient2988"
       x1="21.178534"
       y1="64.87925"
       x2="58.250008"
       y2="64.87925"
       gradientUnits="userSpaceOnUse" />
    <rect
       x="28.488683"
       y="-71.139611"
       width="27.583042"
       height="23.671565"
       id="rect3394" />
    <rect
       x="28.488683"
       y="-71.139611"
       width="27.583042"
       height="23.671565"
       id="rect3400" />
    <rect
       x="28.488683"
       y="-71.139611"
       width="27.583042"
       height="23.671565"
       id="rect3406" />
    <rect
       x="28.488683"
       y="-71.139611"
       width="27.583042"
       height="23.671565"
       id="rect3422" />
    <linearGradient
       inkscape:collect="always"
       xlink:href="#linearGradient3452"
       id="linearGradient3438"
       gradientUnits="userSpaceOnUse"
       gradientTransform="matrix(1.325959,0,0,1.2997024,-326.47135,-626.4489)"
       x1="268.35938"
       y1="500.51953"
       x2="285.10526"
       y2="499.24338" />
    <linearGradient
       inkscape:collect="always"
       xlink:href="#linearGradient3452"
       id="linearGradient3454"
       gradientUnits="userSpaceOnUse"
       x1="2.3925879"
       y1="12.213897"
       x2="28.736525"
       y2="12.213897" />
    <linearGradient
       inkscape:collect="always"
       xlink:href="#linearGradient940"
       id="linearGradient942"
       gradientUnits="userSpaceOnUse"
       x1="128.96873"
       y1="21.084776"
       x2="161.07445"
       y2="21.084776" />
    <linearGradient
       inkscape:collect="always"
       xlink:href="#linearGradient940"
       id="linearGradient946"
       gradientUnits="userSpaceOnUse"
       x1="83.202026"
       y1="51.568569"
       x2="131.63573"
       y2="51.568569" />
    <rect
       x="28.488683"
       y="-71.139611"
       width="27.583042"
       height="23.671565"
       id="rect968" />
    <rect
       x="28.488683"
       y="-71.139611"
       width="27.583042"
       height="23.671565"
       id="rect976" />
    <rect
       x="28.488683"
       y="-71.139611"
       width="27.583042"
       height="23.671565"
       id="rect986" />
    <rect
       x="28.488683"
       y="-71.139611"
       width="65.917583"
       height="40.15281"
       id="rect996" />
    <rect
       x="28.488683"
       y="-71.139611"
       width="27.583042"
       height="23.671565"
       id="rect1012" />
    <rect
       x="28.488683"
       y="-71.139611"
       width="27.583042"
       height="23.671565"
       id="rect1032" />
    <rect
       x="28.488683"
       y="-71.139611"
       width="27.583042"
       height="23.671565"
       id="rect1042" />
  </defs>
  <sodipodi:namedview
     id="base"
     pagecolor="#ffffff"
     bordercolor="#666666"
     borderopacity="1.0"
     inkscape:pageopacity="0.0"
     inkscape:pageshadow="2"
     inkscape:zoom="1.7699942"
     inkscape:cx="400.00132"
     inkscape:cy="200.00155"
     inkscape:document-units="px"
     inkscape:current-layer="layer2"
     inkscape:document-rotation="0"
     showgrid="false"
     showborder="false"
     inkscape:object-paths="true"
     inkscape:snap-intersection-paths="true"
     inkscape:snap-smooth-nodes="true"
     inkscape:snap-midpoints="true"
     inkscape:window-width="1920"
     inkscape:window-height="1001"
     inkscape:window-x="-9"
     inkscape:window-y="-9"
     inkscape:window-maximized="1"
     inkscape:object-nodes="true"
     units="px"
     fit-margin-top="0"
     fit-margin-left="0"
     fit-margin-right="0"
     fit-margin-bottom="0"
     showguides="false" />
  <metadata
     id="metadata5">
    <rdf:RDF>
      <cc:Work
         rdf:about="">
        <dc:format>image/svg+xml</dc:format>
        <dc:type
           rdf:resource="http://purl.org/dc/dcmitype/StillImage" />
        <dc:title></dc:title>
      </cc:Work>
    </rdf:RDF>
  </metadata>
  <g
     inkscape:label="Layer 1"
     inkscape:groupmode="layer"
     id="layer1"
     transform="translate(-2.3918912,34.795799)">
    <path
       id="path839"
       style="font-size:10.5833px;line-height:1.25;font-family:'Hunting Star';-inkscape-font-specification:'Hunting Star, Normal';fill:#e9e9e7;fill-opacity:1;stroke-width:0.13229167;stroke:#0a8270;stroke-opacity:1;stroke-miterlimit:4;stroke-dasharray:none;opacity:1"
       d="m 28.541223,-8.9456017 c -0.1768,-0.024569 -0.362334,0.014617 -0.556796,0.1169224 -0.388944,0.1734064 -0.601498,0.4671555 -0.63709,0.8833705 -0.03557,0.5891772 -0.0166,1.2123462 0.05439,1.8708842 0.07065,0.6584892 0.193544,1.4554544 0.370349,2.3912404 0.212133,0.9011028 0.354012,1.5240281 0.424722,1.8708335 0.282851,1.83693944 0.460209,3.7436837 0.530904,5.7191984 0.07065,3.8471353 -0.283903,7.8853073 -1.061802,12.1136333 -0.707176,3.673831 -1.749441,7.658559 -3.128437,11.956247 -0.212137,0.658488 -0.618676,1.888715 -1.219772,3.690974 -0.601113,1.767568 -1.097595,3.294495 -1.486537,4.57689 -0.388944,1.247714 -0.740987,2.477842 -1.059218,3.690925 -1.777556,7.458531 -1.638942,13.874337 0.40658,19.256897 l 2.1521,-0.47207 c -0.565151,-1.685937 -0.912313,-3.47336 -1.022965,-5.371456 -0.106072,-2.460798 0.01952,-4.715133 0.372903,-6.75996 0.388944,-2.079507 0.972792,-4.366066 1.750674,-6.861495 0.388942,-1.282345 1.131083,-3.603733 2.227194,-6.965635 1.131483,-3.361902 2.031902,-6.258023 2.703724,-8.684139 0.707173,-2.426117 1.274554,-4.798297 1.698875,-7.12042 0.883986,-4.71356 1.255033,-9.0645965 1.113605,-13.0503539 C 32.103976,1.5847618 31.874689,-0.61617757 31.485749,-2.6956855 31.27361,-3.8047261 30.989863,-4.8797733 30.6363,-5.9195507 30.424161,-6.57804 30.246807,-7.0273657 30.105402,-7.2700299 29.963947,-7.6163443 29.609363,-8.0845813 29.043597,-8.6738072 28.88447,-8.8300286 28.718004,-8.9194193 28.54118,-8.9454555 Z"
       inkscape:export-xdpi="96"
       inkscape:export-ydpi="96" />
    <path
       d="m 83.674091,50.800012 q 0.159127,-0.155733 0.318231,0 0.159127,0.104142 0.05304,0.259859 -3.50052,4.522965 -12.14574,8.422072 -2.015457,0.883763 -4.030904,1.247713 -1.962411,0.416069 -4.136979,-0.05208 -2.121529,-0.467647 -3.500518,-2.027534 -1.750263,-1.975515 -2.068489,-4.574937 -0.371253,-2.599371 0.477346,-4.990806 0.848604,-2.391437 2.54583,-4.418972 3.129254,-3.691171 6.523696,-4.211035 1.538111,-0.25986 2.651909,0.571885 1.113799,0.831793 0.954687,2.339414 -0.318232,2.651393 -3.818748,4.574936 -2.757986,1.507672 -5.622046,1.507672 -0.265211,0.727848 -0.318234,0.883812 -0.26521,0.987758 -0.371249,2.027537 -0.05306,0.987758 0.05304,2.027486 0.106073,1.039779 0.477346,1.975563 0.371251,0.883815 0.954684,1.611614 0.583423,0.72785 1.485072,1.195744 0.954688,0.416069 2.121529,0.467647 3.341404,0.155734 8.061799,-2.235471 5.303819,-2.703413 9.334723,-6.602471 z M 64.315154,45.081307 q -1.485072,1.923591 -2.280644,3.951078 3.500524,-0.416068 5.675088,-1.871522 1.803294,-1.247714 2.492791,-2.54745 0.424327,-0.7278 0.318234,-1.663586 -0.106073,-0.987757 -1.007731,-1.299686 -0.742532,-0.259858 -1.485064,0 -0.742541,0.207789 -1.538111,0.987757 -0.742531,0.727802 -1.166843,1.195694 -0.371249,0.416069 -1.00772,1.247715 z"
       style="font-size:10.5833px;line-height:1.25;font-family:'Hunting Star';-inkscape-font-specification:'Hunting Star, Normal';fill:url(#linearGradient2966);fill-opacity:1.0;stroke-width:0.13229167;stroke:none;stroke-opacity:1;stroke-miterlimit:4;stroke-dasharray:none"
       id="path841"
       inkscape:export-xdpi="96"
       inkscape:export-ydpi="96" />
    <path
       d="m 131.19629,49.864226 q 0.15913,-0.156221 0.31823,0 0.21213,0.104142 0.053,0.259861 -2.59887,3.639149 -5.78116,6.446507 -1.27292,1.091748 -2.17457,1.819598 -0.90164,0.67583 -2.38671,1.351658 -1.48508,0.623856 -2.75799,0.571885 -1.06076,-0.05208 -1.8033,-0.72785 -0.74253,-0.727801 -1.16684,-1.923543 -0.42432,-1.195693 -0.63645,-1.975514 -0.15913,-0.831843 -0.31824,-2.079555 -0.15912,-0.883766 -0.31823,-2.49538 -0.10608,-1.663636 -0.21214,-2.183501 -0.053,-0.519914 -0.15912,-0.987806 -0.10608,-0.467647 -0.31823,-1.091701 -0.21212,-0.623858 -0.53036,-0.935785 -0.31823,-0.311929 -0.79557,-0.41607 -0.47735,-0.156209 -1.11381,0.363999 -0.58342,0.363998 -1.1138,1.09175 -0.53038,0.72785 -0.84861,1.351707 -0.31823,0.571836 -0.79557,1.611615 -0.42432,0.987757 -0.63646,1.351708 -0.21214,0.416066 -0.6895,1.351656 -0.42433,0.935785 -0.6895,1.507671 -0.2652,0.519865 -0.74253,1.299687 -0.42432,0.727848 -0.90165,1.247713 -1.69722,2.183499 -3.60659,1.507623 -1.32596,-0.519865 -2.43976,-3.015294 -0.159127,-0.416069 -0.371252,-0.831792 -0.212135,-0.467647 -0.424323,-0.987758 -0.212139,-0.519915 -0.371253,-0.831843 -0.05304,-0.05206 -0.159127,-0.311928 -0.106072,-0.259858 -0.159127,-0.363998 0,-0.104142 -0.106072,-0.31193 -0.106072,-0.207787 -0.212137,-0.311928 -0.05304,-0.104142 -0.212135,-0.259859 -0.106072,-0.155735 -0.26521,-0.207788 -0.106073,-0.104141 -0.265209,-0.20779 -0.159127,-0.104141 -0.31823,-0.155734 -0.848611,-0.259858 -1.538111,0.155734 -0.636457,0.364 -0.954682,0.831795 -0.318229,0.467646 -0.795575,1.403678 -0.05306,0.104141 -0.106072,0.155734 -0.424327,0.831793 -1.219883,2.651393 -0.742537,1.819598 -1.272919,2.755335 -1.007722,1.819599 -1.962411,2.235523 -1.485069,0.675827 -2.59887,-0.571887 -0.58342,-0.623858 -1.272916,-2.807359 -0.371252,-1.299685 -0.583418,-2.859327 -0.371254,-2.755336 -0.21214,-6.290543 0.05306,-0.259859 0.05306,-0.883765 0,-0.675878 0,-1.039777 0.05304,-0.416069 0.106072,-0.987758 0.05302,-0.623857 0.159127,-1.039778 0.159127,-0.416069 0.371253,-0.831793 0.212137,-0.467647 0.583418,-0.831843 0.212136,-0.207788 0.424324,0 0.477346,0.468139 0.742532,1.143771 0.265211,0.675829 0.265211,1.09175 0.05304,0.363998 0.106072,1.351658 0.05306,0.831843 0.05306,2.287492 0.05306,1.403679 0.05306,1.923543 0.05304,2.391435 0.37125,4.055071 0.212135,1.195694 0.477346,2.131478 0.159127,0.467649 0.318228,0.935788 0.212137,-0.31193 0.530383,-0.831794 0.371249,-0.571885 0.424325,-0.623858 0.742535,-1.039778 1.485071,-2.28749 0.106072,-0.259861 0.371249,-0.67583 0.265211,-0.467648 0.42433,-0.727802 0.159127,-0.311927 0.371251,-0.72785 0.265207,-0.416066 0.477344,-0.675828 0.212133,-0.311927 0.47734,-0.623856 0.265214,-0.364 0.583419,-0.623856 1.485077,-1.299737 3.341408,-0.779823 1.856337,0.467647 2.598876,2.235472 0.265207,0.675829 0.79557,1.975514 0.53038,1.247715 0.742531,1.715608 1.325962,3.275248 3.076222,1.871572 0.58342,-0.46814 1.00772,-1.091751 0.47735,-0.675828 1.06077,-1.81955 0.58342,-1.143773 0.74254,-1.351706 0.2652,-0.519866 1.21987,-2.235472 1.00773,-1.715608 1.53811,-2.599422 1.21988,-2.131479 2.49279,-2.651343 0.90165,-0.311929 1.53811,-0.10414 0.6895,0.15572 1.1138,0.831793 0.47735,0.623858 0.6895,1.351707 0.26521,0.675829 0.37125,1.403679 0.15913,0.883764 0.26521,2.599371 0.10607,1.663636 0.26521,3.015292 0.21213,1.299736 0.58342,2.495429 0.90165,2.96332 2.54583,3.119285 1.21988,0.05208 2.81103,-0.727848 0.95468,-0.467648 1.96241,-1.143722 1.00773,-0.727801 1.69722,-1.247715 0.68949,-0.571837 1.75026,-1.663587 1.1138,-1.091749 1.48507,-1.50767 0.42432,-0.467649 1.59115,-1.81955 1.21988,-1.351708 1.43203,-1.559643 z"
       style="font-size:10.5833px;line-height:1.25;font-family:'Hunting Star';-inkscape-font-specification:'Hunting Star, Normal';fill:url(#linearGradient946);fill-opacity:1.0;stroke-width:0.13229167;stroke:none;stroke-opacity:1;stroke-miterlimit:4;stroke-dasharray:none"
       id="path843"
       inkscape:export-xdpi="96"
       inkscape:export-ydpi="96" />
    <path
       d="m 160.79149,49.708263 q 0.10615,-0.104141 0.21214,0 0.10615,0.104142 0.0532,0.207789 -1.48508,2.183498 -5.62206,3.067265 -2.06848,0.416067 -3.55355,0.311927 -0.9547,-0.104142 -3.81875,-0.779821 -0.053,0 -0.10608,0 -0.053,-0.05206 -0.053,-0.05206 -0.053,0.05206 -0.10607,0.155734 0,0.104141 -0.053,0.156221 -1.8033,4.470994 -5.19775,7.018392 -1.1138,0.779821 -2.38671,1.247715 -1.27292,0.467646 -2.70495,0.311928 -1.43203,-0.104142 -2.38672,-1.039778 -0.74254,-0.675828 -0.95469,-1.455649 -0.15912,-0.831842 0.15913,-1.611614 0.37125,-0.779821 0.84861,-1.455702 0.53038,-0.675828 1.21988,-1.247712 3.12925,-2.599373 7.47838,-3.015295 0.31823,-0.05207 0.95469,0 0,-0.05207 0,-0.104141 0.053,-0.05206 0.053,-0.05206 1.16682,-3.119321 1.0077,-6.290578 -0.053,-0.987758 -0.21213,-1.767579 -0.15913,-0.779821 -0.53039,-1.507622 -0.37125,-0.779821 -1.1138,-1.09175 -0.74253,-0.363999 -1.8033,-0.15621 -1.48506,0.207789 -3.55356,2.235473 -1.48506,1.351657 -2.54583,2.651392 -2.2276,2.703365 -3.23532,5.666686 0,1.819549 0.053,4.210985 0,1.039777 -0.31823,4.418972 -0.053,0.883812 -1.00772,1.039777 -0.95469,0.20779 -1.16684,-0.727848 -0.63646,-3.535159 -0.74253,-5.510723 -0.053,-0.571834 -0.15913,-2.391435 -0.15913,-1.81955 -0.21214,-2.859327 -0.21213,-5.822651 -0.26521,-10.449558 -0.21213,-11.801264 0.42433,-21.315085 0.74253,-10.4495581 2.4928,-17.46790142 1.06076,-4.21103598 2.75798,-8.05817128 1.96241,-4.5749343 4.13698,-6.9663703 2.4928,-2.755337 5.83419,-3.795115 3.34141,-1.039729 6.94801,0.259859 4.56128,1.819549 6.09939,9.3578069 0.42432,2.1834993 0.0531,5.9266432 -0.31823,3.53515736 -1.21987,6.966372 -1.75027,6.7584349 -5.40991,12.7890209 -3.39443,5.510721 -8.16787,9.877721 -4.7204,4.314979 -10.50156,7.018343 0,4.159064 0.10607,8.630007 0.053,0.831793 0.15913,3.743143 0.15913,2.859329 0.10607,4.470943 0.95469,-2.963272 3.6066,-6.134578 1.21987,-1.507622 2.12153,-2.391436 0.95468,-0.935786 2.49279,-1.81955 1.53811,-0.883814 3.02317,-0.883814 2.0685,0.05207 3.23533,1.715607 1.16685,1.663586 1.48508,3.951078 0.47734,3.691122 -0.74254,7.278298 3.44748,0.831795 4.87951,0.779822 1.43203,-0.05207 2.81102,-0.363998 1.37899,-0.311928 2.75799,-0.987756 1.43203,-0.727852 2.28065,-1.715607 z M 137.77292,-7.8943794 q -2.86406,6.8104072 -3.87178,14.4526578 -1.00773,7.6421996 -1.32596,17.7798776 -0.10608,4.159015 -0.10608,8.681978 4.13698,-1.975563 7.79661,-4.886864 3.65964,-2.96332 6.57674,-6.446506 2.97015,-3.535207 5.14471,-7.642251 3.18229,-5.9265919 4.56127,-12.4770919 1.59115,-7.8501847 -0.0531,-12.5810861 -1.27291,-3.63915 -2.97011,-5.250763 -1.16685,-1.091752 -3.02319,-1.403679 -1.8033,-0.363998 -3.34141,0 -1.43203,0.259858 -2.75798,0.987757 -1.27292,0.675879 -2.22761,1.611665 -0.90165,0.883764 -1.8033,2.183451 -0.84861,1.247712 -1.43203,2.391484 -0.58341,1.1437212 -1.16684,2.5993706 z m 3.3414,64.7769494 q 2.28065,-2.339464 3.39445,-4.782872 -2.43975,0.05208 -4.56128,1.039729 -1.85634,0.831844 -3.18229,2.027537 -2.28064,2.1835 -1.43203,3.483186 0.42432,0.727848 1.48506,0.779821 1.1138,0 1.75026,-0.41607 1.06077,-0.571884 2.54583,-2.131527 z"
       style="font-size:10.5833px;line-height:1.25;font-family:'Hunting Star';-inkscape-font-specification:'Hunting Star, Normal';fill:url(#linearGradient2970);fill-opacity:1.0;stroke-width:0.13229167;stroke:url(#linearGradient942);stroke-opacity:1;stroke-miterlimit:4;stroke-dasharray:none"
       id="path845"
       inkscape:export-xdpi="96"
       inkscape:export-ydpi="96" />
    <path
       d="m 197.97132,50.22739 q 0.0532,-0.155734 0.15899,-0.10414 0.15956,0.05208 0.15956,0.207787 -1.11379,4.159014 -4.50824,6.810408 -4.61432,3.63915 -10.44851,3.431214 -2.97018,-0.156222 -5.19778,-2.183501 -2.22757,-2.027535 -3.39444,-5.042829 -1.21989,2.339466 -1.8033,3.22323 -1.96241,3.171259 -4.19003,3.899107 -2.97012,0.987757 -4.87951,-0.207788 -2.01543,-1.247716 -2.81102,-4.470994 -0.68951,-2.859327 -0.26522,-6.082556 0.42434,-3.223278 1.96243,-5.718707 1.37898,-2.287443 3.50049,-3.691122 2.12155,-1.403678 4.45523,-1.039778 2.06848,0.259859 3.55354,1.715607 1.53816,1.455699 1.32598,3.431214 0,0.156211 -0.15952,0.156211 -0.159,0 -0.159,-0.156211 -0.10633,-2.235471 -2.28071,-3.223229 -2.1215,-1.039778 -4.13696,-0.104139 -3.12926,1.455651 -4.40218,5.978614 -1.37899,4.782872 0.10615,8.889914 0.63643,1.767628 1.69719,1.975564 1.69724,0.311929 3.12926,-0.779821 1.00772,-0.779822 1.9624,-2.1835 1.00775,-1.455649 1.379,-2.339464 0.42434,-0.883766 1.21987,-2.755336 0.31824,-0.779821 1.21988,-0.831842 0.90165,-0.05208 1.11385,0.831842 0.95469,4.36695 4.03089,7.122337 2.70495,2.443404 8.32703,1.351655 3.39441,-0.675827 5.78113,-2.755336 2.38673,-2.079505 3.55358,-5.354757 z"
       style="font-size:10.5833px;line-height:1.25;font-family:'Hunting Star';-inkscape-font-specification:'Hunting Star, Normal';fill:url(#linearGradient2972);fill-opacity:1.0;stroke-width:0.13229167;stroke:none;stroke-opacity:1;stroke-miterlimit:4;stroke-dasharray:none"
       id="path847"
       inkscape:export-xdpi="96"
       inkscape:export-ydpi="96" />
    <path
       d="m 213.82962,50.020191 q 0.0532,-0.104141 0.1588,0 0.10619,0.05208 0.0532,0.155734 -1.1138,2.443408 -4.98562,4.418972 -3.50051,1.715605 -7.16015,1.403678 -0.21202,0 -0.47761,0 -0.212,-0.05207 -0.4771,-0.05207 -0.21199,-0.05208 -0.42444,-0.104142 0.21196,1.871522 -0.0532,3.483184 -0.2651,1.923544 -1.21986,3.431215 -0.95467,1.559595 -2.59889,2.131478 -1.06076,0.259858 -1.96243,0.05208 -0.90159,-0.20779 -1.53806,-0.935784 -0.63647,-0.675829 -0.7956,-1.663587 -0.21197,-1.403677 0.47712,-2.755387 0.63645,-1.403675 1.75026,-2.495377 1.1138,-0.987807 2.65185,-1.351707 -0.15938,-0.987757 -0.37131,-2.079508 -0.212,-1.091751 -0.53042,-2.391435 -0.31822,-1.351707 -0.4771,-2.079557 -0.84867,-4.055022 -0.2651,-7.122336 0.15937,-0.935785 0.47758,-1.767579 0.31822,-0.883813 1.06075,-1.663634 0.74258,-0.831794 1.64421,-0.623858 1.32594,0.311929 1.75028,2.027536 0.47708,1.715607 0.26511,3.27525 -0.26511,2.391435 -2.17456,4.834892 1.59116,5.406729 1.8563,7.330273 0.42448,0.05206 0.68955,0.05206 2.91708,0.259858 4.29606,-0.104142 1.53812,-0.311929 3.12926,-1.091751 3.92482,-1.871572 5.25078,-4.314976 z m -16.33576,-8.837942 q -0.21199,1.767578 0.21197,3.743093 0.26513,1.14377 0.74257,2.859329 2.81098,-4.003051 1.64413,-7.330272 -0.15918,-0.363999 -0.37131,-0.72785 -0.21197,-0.416069 -0.53041,-0.675828 -0.31824,-0.311929 -0.68949,-0.25986 -0.31824,0 -0.58344,0.519915 -0.31823,0.519864 -0.42447,1.87157 z m -0.15937,18.299743 q 0.15937,-1.40368 -0.0532,-3.223279 0,-0.05207 0,-0.104141 0,-0.104142 0,-0.155734 -0.0534,0 -0.10619,0.05208 0,0 0,0 -2.28064,0.623857 -3.50053,2.651392 -1.16683,1.975517 -0.58343,3.691124 0.37134,1.039777 1.37903,1.195741 0.95467,0.156222 1.69717,-0.675878 0.90169,-0.935735 1.16687,-3.431166 z"
       style="font-size:10.5833px;line-height:1.25;font-family:'Hunting Star';-inkscape-font-specification:'Hunting Star, Normal';fill:url(#linearGradient2974);fill-opacity:1.0;stroke-width:0.13229167;stroke:none;stroke-opacity:1;stroke-miterlimit:4;stroke-dasharray:none"
       id="path849"
       inkscape:export-xdpi="96"
       inkscape:export-ydpi="96" />
    <path
       id="path879"
       style="font-size:10.5833px;line-height:1.25;font-family:'Hunting Star';-inkscape-font-specification:'Hunting Star, Normal';fill:url(#linearGradient2988);fill-opacity:1.0;stroke-width:0;stroke:#f2ecd9;stroke-opacity:1;stroke-miterlimit:4;stroke-dasharray:none"
       d="m 23.330638,58.72015 -2.152104,0.472067 c 0.273779,0.720334 0.577128,1.426276 0.919369,2.109471 1.201666,2.384462 2.755376,4.376974 4.661564,5.975571 0.3935,0.330102 0.801486,0.642522 1.22496,0.939223 2.475114,1.767775 5.498113,2.703904 9.069366,2.807553 4.207684,0.138512 8.185586,-0.727799 11.933634,-2.599371 3.783386,-1.836891 6.858286,-4.436313 9.227324,-7.798214 0.07065,-0.139017 0.03506,-0.277542 -0.106204,-0.416067 -0.141455,-0.103653 -0.264258,-0.08793 -0.370351,0.05059 -2.864072,3.292542 -5.799708,5.685941 -8.8052,7.176274 -3.182308,1.594273 -6.647302,2.407646 -10.395314,2.442031 -3.748045,0 -6.858416,-0.882586 -9.333529,-2.650164 -2.298311,-1.62896 -4.085301,-4.003744 -5.358203,-7.122981 -0.192393,-0.452419 -0.358126,-0.91697 -0.515359,-1.385992 z"
       inkscape:export-xdpi="96"
       inkscape:export-ydpi="96" />
    <text
       xml:space="preserve"
       id="text895"
       style="font-size:10.5833px;line-height:1.25;font-family:'Hunting Star';-inkscape-font-specification:'Hunting Star, Normal';white-space:pre;shape-inside:url(#rect897);" />
    <text
       xml:space="preserve"
       id="text901"
       style="font-size:10.5833px;line-height:1.25;font-family:'Hunting Star';-inkscape-font-specification:'Hunting Star, Normal';white-space:pre;shape-inside:url(#rect903);" />
    <text
       xml:space="preserve"
       id="text3014"
       style="line-height:1.25;font-family:'Hunting Star';font-size:10.58333361px;-inkscape-font-specification:'Hunting Star, Normal';white-space:pre;shape-inside:url(#rect3016);" />
    <text
       xml:space="preserve"
       id="text3026"
       style="line-height:1.25;font-family:'Hunting Star';font-size:10.58333361px;-inkscape-font-specification:'Hunting Star, Normal';white-space:pre;shape-inside:url(#rect3028);" />
  </g>
  <g
     inkscape:groupmode="layer"
     id="layer2"
     inkscape:label="Layer 2"
     style="opacity:1;filter:url(#filter926)"
     transform="translate(-2.3918912,34.795799)">
    <path
       id="path855"
       style="mix-blend-mode:normal;fill:url(#linearGradient3454);fill-opacity:1;stroke:none;stroke-width:1.31483;stroke-miterlimit:4;stroke-dasharray:none"
       d="m 24.040224,-34.794964 c 0,0 -19.6841423,33.2168817 -21.5575369,63.383513 -1.59674566,25.711947 18.5585849,30.634208 18.5585849,30.634208 0,0 0.128102,-0.02603 0.137268,-0.02802 -2.046327,-5.383052 -2.184383,-11.799943 -0.40658,-19.259456 0.318227,-1.213064 0.670274,-2.443231 1.059214,-3.690945 0.388943,-1.282365 0.885432,-2.809308 1.486522,-4.576876 0.601096,-1.802191 1.007621,-3.032398 1.219773,-3.690906 1.378995,-4.297673 2.421266,-8.28243 3.128438,-11.956245 0.328965,-1.788157 0.582235,-3.542304 0.75965,-5.262375 0.242108,-2.3472672 0.342959,-4.6310759 0.30215,-6.8512561 -0.02941,-0.8222896 -0.07731,-1.6326625 -0.143617,-2.4310402 -0.09299,-1.11971686 -0.222176,-2.21583967 -0.387281,-3.2881525 -0.07065,-0.3466086 -0.21259,-0.9697645 -0.424724,-1.8708579 -0.1768,-0.9357879 -0.299636,-1.7327512 -0.37035,-2.3912611 -0.07065,-0.6585305 -0.08976,-1.2816713 -0.05438,-1.8708523 0.03557,-0.4159207 0.248123,-0.7100914 0.637086,-0.8833967 0.217748,-0.1164726 0.39791,0.040274 0.593059,0.086319 l -0.03661,-0.203071 z"
       sodipodi:nodetypes="cccccccccscscccccccc"
       inkscape:export-xdpi="96"
       inkscape:export-ydpi="96" />
    <path
       id="path894"
       style="fill:url(#linearGradient3438);fill-opacity:1;stroke:none;stroke-width:1.31276"
       d="m 24.040224,-34.794964 4.500999,25.849351 0.0361,0.2030728 c 0.153431,0.036357 0.326099,-0.068834 0.466171,0.068534 0.565741,0.589209 0.920368,1.0572023 1.061801,1.4037828 0.141454,0.2426661 0.318727,0.6920012 0.530896,1.350468 0.353612,1.0397642 0.637299,2.1148227 0.849447,3.2238746 0.322188,1.72260232 0.534765,3.52852302 0.638448,5.4176247 0.02148,0.391417 0.03829,0.786405 0.05043,1.1849628 0.04266,1.2020017 0.03871,2.4372229 -0.01187,3.7055895 -0.117135,2.9374448 -0.484338,6.0526658 -1.101733,9.3447448 -0.113771,0.62269 -0.237837,1.248983 -0.372132,1.878952 -0.366511,1.719289 -0.809207,3.465957 -1.326739,5.241483 -0.671822,2.426103 -1.572245,5.322253 -2.703723,8.684141 -1.096114,3.361887 -1.83824,5.683235 -2.227197,6.9656 -0.777871,2.495429 -1.36173,4.781983 -1.750672,6.861504 -0.353559,2.044847 -0.479,4.299196 -0.372905,6.759983 0.110656,1.898063 0.457802,3.685494 1.022971,5.371426 C 30.927543,56.887905 49.609103,48.854543 51.35943,27.164172 54.356852,-9.9803777 24.040069,-34.794979 24.040069,-34.794979 Z"
       sodipodi:nodetypes="cccccccscscsccccccscc"
       inkscape:export-xdpi="96"
       inkscape:export-ydpi="96" />
  </g>
</svg>
